<svg xmlns="http://www.w3.org/2000/svg" viewBox="328.509 -70.458 62.982 76.611"><defs><style>.a{fill:#41c0e9;}.b{fill:#2ab9e2;}</style></defs><g transform="matrix(0.978, 0.208, -0.208, 0.978, 299.596, -89.682)"><path class="a" d="M70.1,140.574l2.744-2.112,22.2-34.2C89.8,108.428,70.1,140.574,70.1,140.574Z" transform="translate(-18.381 -72.119)"/><path class="b" d="M82.4,14.482a6.636,6.636,0,0,0-1.3,1.1c-3.222,3.788-4.733,10.52-4.733,10.52-.518-1.624.478-5.024,1.431-7.653C71.121,24.468,65.2,29.925,62.171,35.995a28.372,28.372,0,0,0-2.48,8.841L59.5,40.1c-10.056,16.544-9.516,28.99-9.516,28.99L46.045,77.56l2.887-2.979,1.92-3.327,1.8-2.694c16.079-8.28,27.076-25.671,27.076-25.671l-6.175.218c10.64-3.87,19.632-22.735,19.632-22.735C102.906,2.223,84.918,12.718,82.4,14.482ZM54.093,66.31l-1.618-.684S69.44,38.111,76.668,32.141Z" transform="translate(0)"/></g></svg>