<svg xmlns="http://www.w3.org/2000/svg" viewBox="2519 122 24.607 24">
  <defs>
    <style>
      .cls-1 {
        fill: #1d90b1;
      }
    </style>
  </defs>
  <path id="Icon" class="cls-1" d="M12.3,0A12.3,12.3,0,0,0,8.414,23.977c.615.113.84-.267.84-.592,0-.293-.011-1.263-.017-2.29-3.421.743-4.144-1.451-4.144-1.451a3.262,3.262,0,0,0-1.366-1.8c-1.118-.763.085-.748.085-.748A2.582,2.582,0,0,1,5.7,18.365a2.619,2.619,0,0,0,3.58,1.021,2.63,2.63,0,0,1,.781-1.643c-2.731-.311-5.6-1.367-5.6-6.081a4.763,4.763,0,0,1,1.265-3.3A4.432,4.432,0,0,1,5.841,5.1s1.032-.33,3.384,1.262a11.647,11.647,0,0,1,6.159,0C17.731,4.772,18.764,5.1,18.764,5.1a4.413,4.413,0,0,1,.123,3.256,4.749,4.749,0,0,1,1.265,3.3c0,4.726-2.878,5.767-5.618,6.072a2.931,2.931,0,0,1,.835,2.277c0,1.645-.017,2.971-.017,3.376,0,.327.224.71.847.59A12.306,12.306,0,0,0,12.3,0Z" transform="translate(2519 122)"/>
</svg>
