<svg xmlns="http://www.w3.org/2000/svg" viewBox="-129 -372 29.143 28.424"><defs><style>.a{fill:#fff;}</style></defs><path class="a" d="M14.571,0A14.572,14.572,0,0,0,9.965,28.4c.728.133.994-.317.994-.7,0-.347-.013-1.5-.02-2.713-4.052.88-4.908-1.718-4.908-1.718a3.864,3.864,0,0,0-1.618-2.131c-1.324-.9.1-.886.1-.886a3.058,3.058,0,0,1,2.233,1.5,3.1,3.1,0,0,0,4.241,1.21,3.115,3.115,0,0,1,.925-1.946c-3.235-.368-6.637-1.619-6.637-7.2A5.641,5.641,0,0,1,6.773,9.9a5.249,5.249,0,0,1,.144-3.858s1.222-.391,4.007,1.494a13.794,13.794,0,0,1,7.295,0c2.78-1.887,4-1.494,4-1.494A5.227,5.227,0,0,1,22.369,9.9a5.625,5.625,0,0,1,1.5,3.911c0,5.6-3.408,6.83-6.654,7.191a3.471,3.471,0,0,1,.989,2.7c0,1.948-.02,3.518-.02,4,0,.388.265.841,1,.7A14.574,14.574,0,0,0,14.571,0Z" transform="translate(-129 -372)"/></svg>