<svg xmlns="http://www.w3.org/2000/svg" viewBox="-447.148 -549 100 52.254"><defs><style>.a{fill:#414141;}</style></defs><g transform="translate(-727.66 -799.662)"><g transform="translate(324.36 250.662)"><path class="a" d="M987.717,622.681l.725-.362-1.248-2.737-.725.362a18.225,18.225,0,0,0-7.971,7,19.782,19.782,0,0,0-.966,1.812,7.972,7.972,0,0,0-1.409-.121,8.452,8.452,0,0,0-7.931,5.515,39.544,39.544,0,0,1-2.5,4.589c-.282.362-.685.845-1.127,1.409a28.29,28.29,0,0,0-4.791,7.488c-.04.081-.081.2-.121.282a11.584,11.584,0,0,0,.4,8.977,11.241,11.241,0,0,0,10.668,6.482h0a11.6,11.6,0,0,0,11.031-7.568c.04-.081.04-.121.081-.2h0a28.874,28.874,0,0,0,1.167-8.817c0-.725,0-1.328.04-1.812a42.2,42.2,0,0,1,1.047-5.153,8.447,8.447,0,0,0-.161-6.119,8.623,8.623,0,0,0-3.543-4.026,10.793,10.793,0,0,1,.725-1.328A15.71,15.71,0,0,1,987.717,622.681Zm-5.193,16.747-.04.081a36.46,36.46,0,0,0-1.087,5.475c-.04.523-.04,1.168-.04,1.932a26.057,26.057,0,0,1-1.087,8.333v.04c-.04.081-.04,0-.081.04a10.023,10.023,0,0,1-9.5,6.522h0a9.573,9.573,0,0,1-9.179-5.676,9.993,9.993,0,0,1-.322-7.689.573.573,0,0,0,.081-.242,25.355,25.355,0,0,1,4.549-7.045c.483-.6.886-1.087,1.208-1.53a35.056,35.056,0,0,0,2.657-4.871l.04-.081a6.783,6.783,0,0,1,6.4-4.469,8.081,8.081,0,0,1,1.691.2l.6.161.564.282a6.886,6.886,0,0,1,3.543,8.535Z" transform="translate(-958.941 -618.776)"/><path class="a" d="M988.846,622.967h.081a10.326,10.326,0,0,0,7.609-3.1l.564-.483-.564-.523a10.5,10.5,0,0,0-7.568-3.14h-.081a10.515,10.515,0,0,0-7.609,3.3l-.564.6.564.362A10.349,10.349,0,0,0,988.846,622.967Zm.04-6.039h.08a9.205,9.205,0,0,1,5.8,2.375,9.1,9.1,0,0,1-5.837,2.456h-.081a9.205,9.205,0,0,1-5.8-2.375A9.1,9.1,0,0,1,988.887,616.929Z" transform="translate(-976.173 -615.721)"/><ellipse class="a" cx="2.013" cy="2.013" rx="2.013" ry="2.013" transform="translate(12.673 16.385)"/><ellipse class="a" cx="3.583" cy="3.583" rx="3.583" ry="3.583" transform="translate(7.52 23.108)"/></g><g transform="translate(280.512 271.395)"><path class="a" d="M765.336,729.094a11.452,11.452,0,0,1-2.134,3.824,10.851,10.851,0,0,1-3.341,2.7,9.6,9.6,0,0,1-4.469,1.006,16.788,16.788,0,0,1-2.456-.161c-.805-.121-1.651-.242-2.415-.4v10.225l-.362.362h-1.127l-.322-.362V715.809l.322-.362h1.127l.362.362v2.939a8.072,8.072,0,0,1,2.9-2.7,8.3,8.3,0,0,1,3.865-.926c3.019,0,5.274.845,6.683,2.5a10.469,10.469,0,0,1,2.133,6.924A13.165,13.165,0,0,1,765.336,729.094Zm-1.449-7.689a6.927,6.927,0,0,0-1.248-2.5,5.909,5.909,0,0,0-2.174-1.61,8.322,8.322,0,0,0-3.18-.564,6.363,6.363,0,0,0-2.858.6,6.077,6.077,0,0,0-2.093,1.691,7.536,7.536,0,0,0-1.288,2.456,9.909,9.909,0,0,0-.443,2.9v9.984a9.718,9.718,0,0,0,2.375.564c.805.081,1.651.121,2.456.121a7.889,7.889,0,0,0,3.824-.886,8.738,8.738,0,0,0,2.778-2.375,9.7,9.7,0,0,0,1.691-3.341,13.81,13.81,0,0,0,.564-3.865A13.213,13.213,0,0,0,763.886,721.4Z" transform="translate(-748.709 -715.124)"/><g transform="translate(21.86 0.04)"><path class="a" d="M870.385,725.744l-7.528.242c-2.5.08-5.032.121-7.528.121a14.314,14.314,0,0,0,.443,3.583,8.193,8.193,0,0,0,1.369,2.858,6.618,6.618,0,0,0,2.375,1.932,7.824,7.824,0,0,0,3.543.725,9.07,9.07,0,0,0,2.335-.322,17.473,17.473,0,0,0,2.053-.684c.6-.242,1.127-.483,1.53-.684a5.715,5.715,0,0,1,.684-.322.255.255,0,0,1,.242.2,2.022,2.022,0,0,1,.081.483v.523c0,.161-.04.322-.04.4l-.161.322a10.841,10.841,0,0,1-1.53.725c-.564.2-1.167.362-1.731.523-.6.121-1.167.241-1.771.322a12.391,12.391,0,0,1-1.691.121,10.8,10.8,0,0,1-4.549-.845,7.375,7.375,0,0,1-2.939-2.335,10.006,10.006,0,0,1-1.57-3.583,20.8,20.8,0,0,1-.483-4.67,13.052,13.052,0,0,1,.6-4.066,8.531,8.531,0,0,1,1.812-3.18,8.069,8.069,0,0,1,2.939-2.053,10.611,10.611,0,0,1,4.066-.765,7.793,7.793,0,0,1,3.824.845,6.845,6.845,0,0,1,2.415,2.254,9.121,9.121,0,0,1,1.248,3.221,19.165,19.165,0,0,1,.362,3.784Zm-1.932-4.227a7.328,7.328,0,0,0-1.087-2.335,5.232,5.232,0,0,0-1.852-1.651,5.46,5.46,0,0,0-2.617-.6,8.279,8.279,0,0,0-3.06.564,6.989,6.989,0,0,0-2.375,1.57,6.711,6.711,0,0,0-1.53,2.415,9.4,9.4,0,0,0-.6,3.06h1.288c2.053,0,4.106-.04,6.159-.081s4.106-.121,6.159-.282A14.089,14.089,0,0,0,868.452,721.517Z" transform="translate(-853.517 -715.317)"/></g></g><g transform="translate(354.948 271.475)"><g transform="translate(0 0.04)"><path class="a" d="M1115.257,717.8a2.433,2.433,0,0,0-.966-.2c-.363,0-.644-.04-.926-.04a5.922,5.922,0,0,0-2.254.443,5.445,5.445,0,0,0-1.892,1.208,5.153,5.153,0,0,0-1.288,1.771,5.272,5.272,0,0,0-.483,2.255v13.2l-.362.362h-1.127l-.362-.362V716.227l.322-.362h1.127l.362.362v2.858a8.148,8.148,0,0,1,2.9-2.5,7.694,7.694,0,0,1,3.663-.886h.765a4.453,4.453,0,0,1,.725.08l.322.362v1.329Z" transform="translate(-1105.596 -715.703)"/></g><g transform="translate(12.681 0)"><path class="a" d="M1178.594,734.109a4.633,4.633,0,0,1-1.651,1.651,6.44,6.44,0,0,1-2.254.886,13.594,13.594,0,0,1-2.536.282,18.17,18.17,0,0,1-2.818-.242,12.308,12.308,0,0,1-2.737-.725l-.2-.282V734.23c0-.242.121-.362.322-.362.564.2,1.047.4,1.409.564s.765.322,1.127.483a8.006,8.006,0,0,0,1.248.322,10.43,10.43,0,0,0,1.771.121,9.243,9.243,0,0,0,1.812-.2,6.124,6.124,0,0,0,1.691-.644,3.712,3.712,0,0,0,1.208-1.167,3.151,3.151,0,0,0,.483-1.771,3.216,3.216,0,0,0-.805-2.254,8.724,8.724,0,0,0-2.013-1.49,27.651,27.651,0,0,0-2.657-1.167,13.649,13.649,0,0,1-2.657-1.328,6.72,6.72,0,0,1-2.013-1.973,5.091,5.091,0,0,1-.805-3.06,4.351,4.351,0,0,1,.564-2.254,4.281,4.281,0,0,1,1.449-1.49,6.389,6.389,0,0,1,2.013-.805,10.734,10.734,0,0,1,2.255-.241,22.457,22.457,0,0,1,2.818.161,18.258,18.258,0,0,1,2.738.564l.282.322v1.288a.679.679,0,0,1-.08.2c-.04.08-.08.121-.161.121a2.954,2.954,0,0,1-.845-.161c-.4-.121-.845-.242-1.369-.362s-1.047-.242-1.65-.362a8.667,8.667,0,0,0-1.731-.161,6.936,6.936,0,0,0-1.57.161,5.648,5.648,0,0,0-1.449.523,2.787,2.787,0,0,0-1.047,1.007,2.628,2.628,0,0,0-.4,1.53,3.425,3.425,0,0,0,.805,2.335,7.806,7.806,0,0,0,2.013,1.53,20.289,20.289,0,0,0,2.657,1.208,20.453,20.453,0,0,1,2.657,1.328,7.1,7.1,0,0,1,2.013,1.932,4.964,4.964,0,0,1,.805,3.019A5.65,5.65,0,0,1,1178.594,734.109Z" transform="translate(-1166.396 -715.51)"/></g></g></g></svg>